Coordinates
version=1
nRows=27
nColumns=12
inDegrees=yes

Units are S.I. units (second, meters, Newtons, ...)
Angles are in degrees

endheader
time	SC_y	SC_z	SC_x	AC_y	AC_z	AC_x	GH_y	GH_z	GH_yy	EL_x	PS_y
       0.0              -59.66          35.99          34.62          55.51         -6.138          -3.72          -5.55          58.55          29.76          119.6          37.47
   0.04903              -59.65          35.99          34.62          55.51          -6.14          -3.72         -5.525          58.54          29.75          119.6          37.46
   0.09807              -59.65          35.98          34.63          55.51         -6.142          -3.72         -5.498          58.53          29.74          119.5          37.46
    0.1471              -59.65          35.98          34.64          55.52         -6.144          -3.72          -5.47          58.51          29.73          119.5          37.46
    0.1961              -59.64          35.97          34.65          55.52         -6.147         -3.721          -5.44           58.5          29.72          119.5          37.45
    0.2452              -59.64          35.96          34.65          55.52         -6.149         -3.721         -5.408          58.49          29.71          119.5          37.45
    0.2942              -59.63          35.96          34.66          55.52         -6.152         -3.721         -5.373          58.47           29.7          119.5          37.44
    0.3432              -59.63          35.95          34.67          55.53         -6.155         -3.722         -5.336          58.46          29.69          119.5          37.44
    0.3923              -59.62          35.94          34.68          55.53         -6.158         -3.722         -5.297          58.44          29.67          119.5          37.43
    0.4413              -59.62          35.93          34.69          55.53         -6.161         -3.722         -5.255          58.43          29.66          119.5          37.43
    0.4903              -59.61          35.92           34.7          55.53         -6.164         -3.723          -5.21          58.41          29.64          119.5          37.42
    0.5394              -59.61          35.91          34.71          55.54         -6.168         -3.723         -5.161          58.39          29.63          119.4          37.42
    0.5884               -59.6           35.9          34.72          55.54         -6.172         -3.724         -5.108          58.37          29.61          119.4          37.41
    0.6374              -59.59          35.89          34.74          55.54         -6.176         -3.724         -5.051          58.34          29.59          119.4           37.4
    0.6865              -59.58          35.88          34.75          55.55         -6.181         -3.725          -4.99          58.32          29.57          119.4           37.4
    0.7355              -59.58          35.86          34.77          55.55         -6.186         -3.725         -4.923          58.29          29.54          119.4          37.39
    0.7845              -59.57          35.85          34.79          55.56         -6.192         -3.726         -4.851          58.26          29.52          119.3          37.38
    0.8336              -59.56          35.83           34.8          55.56         -6.198         -3.726         -4.772          58.23          29.49          119.3          37.37
    0.8826              -59.54          35.81          34.83          55.57         -6.205         -3.727         -4.685          58.19          29.46          119.3          37.36
    0.9316              -59.53           35.8          34.85          55.58         -6.212         -3.728         -4.591          58.15          29.43          119.3          37.34
    0.9807              -59.52          35.77          34.87          55.58          -6.22         -3.729         -4.487          58.11          29.39          119.2          37.33
      1.03               -59.5          35.75           34.9          55.59         -6.228          -3.73         -4.373          58.06          29.35          119.2          37.32
     1.079              -59.49          35.72          34.93           55.6         -6.238         -3.731         -4.247          58.01          29.31          119.2           37.3
     1.128              -59.47           35.7          34.96          55.61         -6.249         -3.732         -4.108          57.95          29.26          119.1          37.28
     1.177              -59.45          35.66           35.0          55.62         -6.261         -3.733         -3.952          57.89          29.21          119.1          37.26
     1.226              -59.43          35.63          35.04          55.63         -6.274         -3.735         -3.779          57.82          29.15          119.0          37.24
     1.275               -59.4          35.59          35.09          55.65         -6.289         -3.736         -3.585          57.74          29.08          118.9          37.22
